{"title":"Avril Lavigne Ft. Chad Kroeger - Let Me Go [Music Video] 1080p [","uid":9101219,"size":114740934,"categoryP":"video","categoryS":"music_videos","magnet":"?xt=urn:btih:b422d51cf7dbc0121fd27f55349e1ce1acf05362&amp;dn=Avril+Lavigne+Ft.+Chad+Kroeger+-+Let+Me+Go+%5BMusic+Video%5D+1080p+%5B&amp;tr=udp%3A%2F%2Ftracker.openbittorrent.com%3A80&amp;tr=udp%3A%2F%2Fopen.demonii.com%3A1337&amp;tr=udp%3A%2F%2Ftracker.coppersurfer.tk%3A6969&amp;tr=udp%3A%2F%2Fexodus.desync.com%3A6969","seeders":2,"leechers":0,"uploader":"Sbyky","files":1,"time":1382771837,"description":"[IMG]http://cdn.piczend.com/images/BVM4oL7K/1382762539_letmego.jpg[/IMG]\n\nGeneral\nComplete name                            : Avril Lavigne Ft. Chad Kroeger - Let Me Go [Music Video] 1080p [Sbyky].MP4\nFormat                                   : MPEG-4\nFormat profile                           : Base Media / Version 2\nCodec ID                                 : mp42\nFile size                                : 109 MiB\nDuration                                 : 5mn 5s\nOverall bit rate mode                    : Variable\nOverall bit rate                         : 3 007 Kbps\nEncoded date                             : UTC 2013-10-15 06:03:40\nTagged date                              : UTC 2013-10-15 06:03:40\n\nVideo\nID                                       : 1\nFormat                                   : AVC\nFormat/Info                              : Advanced Video Codec\nFormat profile                           : &lt;a class=&quot;__cf_email__&quot; href=&quot;/cdn-cgi/l/email-protection&quot; data-cfemail=&quot;bef6d7d9d6fef28a908e&quot;&gt;[email&amp;#160;protected]&lt;/a&gt;&lt;script cf-hash='f9e31' type=&quot;text/javascript&quot;&gt;\n/* &lt;![CDATA[ */!function(){try{var t=&quot;currentScript&quot;in document?document.currentScript:function(){for(var t=document.getElementsByTagName(&quot;script&quot;),e=t.length;e--;)if(t[e].getAttribute(&quot;cf-hash&quot;))return t[e]}();if(t&amp;&amp;t.previousSibling){var e,r,n,i,c=t.previousSibling,a=c.getAttribute(&quot;data-cfemail&quot;);if(a){for(e=&quot;&quot;,r=parseInt(a.substr(0,2),16),n=2;a.length-n;n+=2)i=parseInt(a.substr(n,2),16)^r,e+=String.fromCharCode(i);e=document.createTextNode(e),c.parentNode.replaceChild(e,c)}}}catch(u){}}();/* ]]&gt; */&lt;/script&gt;\nFormat settings, CABAC                   : Yes\nFormat settings, ReFrames                : 2 frames\nCodec ID                                 : avc1\nCodec ID/Info                            : Advanced Video Coding\nDuration                                 : 5mn 5s\nSource duration                          : 5mn 5s\nBit rate                                 : 2 752 Kbps\nWidth                                    : 1 920 pixels\nHeight                                   : 1 080 pixels\nDisplay aspect ratio                     : 16:9\nFrame rate mode                          : Variable\nFrame rate                               : 23.976 fps\nMinimum frame rate                       : 23.974 fps\nMaximum frame rate                       : 24.071 fps\nColor space                              : YUV\nChroma subsampling                       : 4:2:0\nBit depth                                : 8 bits\nScan type                                : Progressive\nBits/(Pixel*Frame)                       : 0.055\nStream size                              : 100 MiB (91%)\nSource stream size                       : 100 MiB (91%)\nEncoded date                             : UTC 2013-10-15 06:03:40\nTagged date                              : UTC 2013-10-15 06:03:40\n\nAudio\nID                                       : 2\nFormat                                   : AAC\nFormat/Info                              : Advanced Audio Codec\nFormat profile                           : LC\nCodec ID                                 : 40\nDuration                                 : 5mn 5s\nBit rate mode                            : Variable\nBit rate                                 : 254 Kbps\nChannel(s)                               : 2 channels\nChannel positions                        : Front: L R\nSampling rate                            : 44.1 KHz\nCompression mode                         : Lossy\nStream size                              : 9.23 MiB (8%)\nEncoded date                             : UTC 2013-10-15 06:03:23\nTagged date                              : UTC 2013-10-15 06:03:23\n\nShared By Sbyky\n[IMG]http://cdn.piczend.com/images/X3Ag13N3/1379453786_saythanks.gif[/IMG]\n[IMG]http://cdn.piczend.com/images/gGqhX2S8/1379453780_keepseeding.gif[/IMG]","torrent":{"xt":"urn:btih:b422d51cf7dbc0121fd27f55349e1ce1acf05362","amp;dn":"Avril+Lavigne+Ft.+Chad+Kroeger+-+Let+Me+Go+%5BMusic+Video%5D+1080p+%5B","amp;tr":["udp%3A%2F%2Ftracker.openbittorrent.com%3A80","udp%3A%2F%2Fopen.demonii.com%3A1337","udp%3A%2F%2Ftracker.coppersurfer.tk%3A6969","udp%3A%2F%2Fexodus.desync.com%3A6969"],"infoHash":"b422d51cf7dbc0121fd27f55349e1ce1acf05362","infoHashBuffer":{"type":"Buffer","data":[180,34,213,28,247,219,192,18,31,210,127,85,52,158,28,225,172,240,83,98]},"announce":[],"urlList":[]}}